<svg width="87" height="100" viewBox="0 0 87 100" fill="none" xmlns="http://www.w3.org/2000/svg">
    <path d="M86.2173 24.5513L43.9493 0.147048L43.7822 0.0534682C43.6586 -0.0133745 43.5115 -0.0167167 43.3879 0.0534682L0.952782 24.548L0.431409 24.8488C0.304408 24.9223 0.227539 25.056 0.227539 25.203V74.797C0.227539 74.944 0.304408 75.0777 0.431409 75.1512L42.8598 99.6424L43.3812 99.9432C43.5082 100.017 43.6619 100.017 43.7889 99.9432L44.3103 99.6424L69.6871 84.9972C69.8141 84.9236 69.891 84.7899 69.891 84.6429V76.575C69.891 76.2608 70.2319 76.0636 70.5026 76.2207L76.9629 79.9505L77.4877 80.2513C77.6147 80.3249 77.7684 80.3249 77.8954 80.2513L78.4201 79.9505L86.742 75.1445C86.869 75.071 86.9459 74.9373 86.9459 74.7903V25.2064C86.9459 25.0593 86.869 24.9256 86.742 24.8521L86.2206 24.5513H86.2173ZM42.2482 97.6137L1.88524 74.3124C1.75824 74.2388 1.68137 74.1051 1.68137 73.9581V27.352C1.68137 27.0379 2.02227 26.8407 2.29298 26.9978L42.6559 50.2991C42.7829 50.3726 42.8598 50.5063 42.8598 50.6534V97.2595C42.8598 97.5736 42.5189 97.7708 42.2482 97.6137ZM43.5884 49.1594L3.01822 25.7378C2.74751 25.5807 2.74751 25.1897 3.01822 25.0326L43.3812 1.73122C43.5082 1.65769 43.6619 1.65769 43.7889 1.73122L84.1519 25.0393C84.4226 25.1963 84.4226 25.5874 84.1519 25.7445L77.8954 29.354C77.7684 29.4275 77.6147 29.4275 77.4877 29.354L44.3136 10.1968L43.7889 9.89605C43.6619 9.82253 43.5082 9.82253 43.3812 9.89605L42.8565 10.1968L34.3307 15.1198L34.217 15.1867C33.9463 15.3437 33.9463 15.7348 34.217 15.8918L34.3006 15.9386L34.334 15.9587L42.2315 20.5207L42.8598 20.8816L44.3136 21.7205L67.1003 34.8785C67.371 35.0356 67.371 35.4266 67.1003 35.5837L65.8704 36.2956L60.8472 39.1965C60.7202 39.2701 60.5664 39.2701 60.4394 39.1965L27.2587 20.0428L26.734 19.742C26.607 19.6685 26.4533 19.6685 26.3263 19.742L25.8015 20.0428L17.1621 25.0326C16.8914 25.1897 16.8914 25.5807 17.1621 25.7378L25.8015 30.7276L50.6537 45.0787L43.585 49.1594H43.5884ZM76.241 30.3098L69.1691 34.3939L44.5208 20.1597C44.3938 20.0862 44.317 19.9525 44.317 19.8055V12.5798C44.317 12.2656 44.6579 12.0684 44.9286 12.2255L76.2444 30.3065L76.241 30.3098ZM42.8598 12.5798V18.4987C42.8598 18.8129 42.5189 19.0101 42.2482 18.853L36.5098 15.5443H36.5131L42.2482 12.2322C42.5189 12.0751 42.8598 12.2723 42.8598 12.5865V12.5798ZM52.8394 73.9547V44.8915C52.8394 44.7445 52.7625 44.6108 52.6355 44.5373L27.4626 30.0023C27.3356 29.9288 27.2587 29.7951 27.2587 29.6481V22.4224C27.2587 22.1082 27.5996 21.911 27.8703 22.0681L59.7075 40.4465C59.8345 40.52 59.9114 40.6537 59.9114 40.8008V77.5642C59.9114 77.8784 59.5705 78.0756 59.2998 77.9185L53.0433 74.3057C52.9163 74.2321 52.8394 74.0985 52.8394 73.9514V73.9547ZM58.5745 79.8837L53.451 82.8415C53.1803 82.9986 52.8394 82.8014 52.8394 82.4872V76.5716C52.8394 76.2575 53.1803 76.0603 53.451 76.2174L58.5745 79.1752C58.8452 79.3322 58.8452 79.7233 58.5745 79.8803V79.8837ZM25.8049 22.4291V28.3446C25.8049 28.6588 25.464 28.856 25.1933 28.6989L20.0698 25.7411C19.7991 25.584 19.7991 25.193 20.0698 25.0359L25.1933 22.0781C25.464 21.9211 25.8049 22.1182 25.8049 22.4324V22.4291ZM69.891 73.9581V45.7304C69.891 45.5834 69.9679 45.4497 70.0949 45.3762L76.348 41.7666C76.6187 41.6096 76.9596 41.8068 76.9596 42.1209V77.5709C76.9629 77.8851 76.6254 78.0823 76.3513 77.9252L70.0949 74.3124C69.9679 74.2388 69.891 74.1051 69.891 73.9581ZM85.2882 74.3124L79.0317 77.9252C78.761 78.0823 78.4201 77.8851 78.4201 77.5709V39.6043C78.4168 39.2901 78.0759 39.0929 77.8052 39.25L68.6444 44.5373C68.5174 44.6108 68.4405 44.7445 68.4405 44.8915V83.804C68.4405 83.9511 68.3636 84.0848 68.2366 84.1583L44.9252 97.6137C44.6545 97.7708 44.3136 97.5736 44.3136 97.2595V50.6567C44.3136 50.5097 44.3905 50.376 44.5175 50.3025L50.774 46.6896C51.0447 46.5325 51.3856 46.7297 51.3856 47.0439V85.0105C51.3856 85.3247 51.7265 85.5219 51.9972 85.3648L60.64 80.375L61.1613 80.0742C61.2883 80.0007 61.3652 79.867 61.3652 79.7199V40.8108C61.3652 40.6637 61.4421 40.5301 61.5691 40.4565L66.4386 37.6458L69.1657 36.0717L84.8805 27.0011C85.1512 26.844 85.4921 27.0412 85.4921 27.3554V73.9581C85.4921 74.1051 85.4152 74.2388 85.2882 74.3124Z" fill="#141414"/>
    <path d="M35.7845 85.0105V54.7408C35.7845 54.5938 35.7076 54.4601 35.5806 54.3866L18.7329 44.6576L9.36491 39.2467C9.09419 39.0896 8.7533 39.2868 8.7533 39.601V69.8707C8.7533 70.0177 8.83017 70.1514 8.95717 70.2249L9.47854 70.5257L35.1729 85.3615C35.4436 85.5185 35.7845 85.3214 35.7845 85.0072V85.0105ZM19.3445 46.6896L34.1268 55.2254C34.2538 55.299 34.3307 55.4326 34.3307 55.5797V72.648C34.3307 72.9621 33.9898 73.1593 33.719 73.0022L18.9368 64.4698C18.8098 64.3962 18.7329 64.2626 18.7329 64.1155V47.0439C18.7329 46.7297 19.0738 46.5325 19.3445 46.6896ZM10.8187 41.7667L17.0752 45.3795C17.2022 45.453 17.2791 45.5867 17.2791 45.7338V64.1155C17.2791 64.2626 17.2022 64.3962 17.0752 64.4698L10.8187 68.0793C10.548 68.2364 10.2071 68.0392 10.2071 67.725V42.1176C10.2071 41.8034 10.548 41.6062 10.8187 41.7633V41.7667ZM10.2071 69.2691L10.7318 69.5732C10.8588 69.6467 11.0126 69.6467 11.1396 69.5732L17.8038 65.7298C17.9308 65.6562 18.0845 65.6562 18.2115 65.7298L34.1301 74.9173C34.2571 74.9908 34.334 75.1245 34.334 75.2716V82.4972C34.334 82.8114 33.9931 83.0086 33.7224 82.8515L10.9357 69.6935L10.2105 69.2724L10.2071 69.2691Z" fill="#141414"/>
</svg>
