<svg width="150" viewBox="0 0 1181 199" fill="none" xmlns="http://www.w3.org/2000/svg">
    <path d="M313.589 48.8977H249.678C247.169 48.8977 244.761 49.8958 242.986 51.6724L95.8142 199H0V57.1105L56.9851 0V158.169H65.127L213.841 9.30054C219.79 3.34429 227.859 0 236.272 0H313.592V48.8977H313.589ZM471.206 0H375.391L228.22 147.328C226.445 149.104 224.036 150.102 221.527 150.102H157.617V198.997H234.869C243.325 198.997 251.434 195.637 257.411 189.651L406.079 40.8312H414.221V174.47H322.405V199H414.221L422.679 190.524L430.567 182.62L471.208 141.892V0H471.206ZM544.683 16.2983H567.47L624.672 165.036L681.635 16.2983H704.422L639.387 182.62H609.957L544.683 16.2983ZM755.207 110.625L777.281 108.962V104.685C777.281 81.3993 766.601 74.0327 750.225 74.0327C733.849 74.0327 722.691 82.8233 720.318 97.0793H698.718C702.991 72.1314 724.114 56.6874 750.699 56.6874C779.181 56.6874 799.355 69.5167 799.355 107.771V144.599C799.355 161.47 802.203 175.248 805.05 182.615H783.451C781.79 178.338 780.365 172.162 779.89 163.368C773.008 176.436 760.429 184.991 738.829 184.991C710.347 184.991 694.919 168.12 694.919 148.876C694.919 126.779 713.433 113.237 755.207 110.622V110.625ZM744.288 168.836C765.65 168.836 777.279 154.342 777.279 136.522V124.881L759.478 126.307C730.283 128.209 716.991 133.91 716.991 148.166C716.991 158.858 725.298 168.836 744.286 168.836H744.288ZM872.692 167.648C892.628 167.648 905.682 153.631 905.682 127.018V59.0634H927.756V182.615H905.682V160.756C897.849 176.675 883.134 184.991 864.859 184.991C839.699 184.991 822.849 169.547 822.849 135.095V59.0661H844.923V131.772C844.923 156.484 855.129 167.651 872.692 167.651V167.648ZM975.697 16.2983V182.62H953.623V16.2983H975.697ZM1010.58 150.542V76.8861H992.544V59.0661H1010.58V30.5543H1032.66V59.0661H1055.68V76.8861H1032.66V148.64C1032.66 164.559 1042.15 167.648 1055.68 165.747V182.618C1027.43 186.182 1010.58 178.579 1010.58 150.542ZM1131.16 110.625L1153.23 108.962V104.685C1153.23 81.3993 1142.55 74.0327 1126.17 74.0327C1109.8 74.0327 1098.64 82.8233 1096.27 97.0793H1074.67C1078.94 72.1314 1100.06 56.6874 1126.65 56.6874C1155.13 56.6874 1175.3 69.5167 1175.3 107.771V144.599C1175.3 161.47 1178.15 175.248 1181 182.615H1159.4C1157.74 178.338 1156.31 172.162 1155.84 163.368C1148.96 176.436 1136.38 184.991 1114.78 184.991C1086.3 184.991 1070.87 168.12 1070.87 148.876C1070.87 126.779 1089.38 113.237 1131.16 110.622V110.625ZM1120.24 168.836C1141.6 168.836 1153.23 154.342 1153.23 136.522V124.881L1135.43 126.307C1106.23 128.209 1092.94 133.91 1092.94 148.166C1092.94 158.858 1101.25 168.836 1120.24 168.836H1120.24Z" fill="white"/>
</svg>
