<svg width="150" viewBox="0 0 213 100" fill="none" xmlns="http://www.w3.org/2000/svg">
    <path d="M85.9898 24.5513L43.7218 0.147048L43.5547 0.0534682C43.431 -0.0133745 43.284 -0.0167167 43.1603 0.0534682L0.725243 24.548L0.20387 24.8488C0.0768691 24.9223 0 25.056 0 25.203V74.797C0 74.944 0.0768691 75.0777 0.20387 75.1512L42.6323 99.6424L43.1536 99.9432C43.2806 100.017 43.4344 100.017 43.5614 99.9432L44.0827 99.6424L69.4596 84.9972C69.5866 84.9236 69.6635 84.7899 69.6635 84.6429V76.575C69.6635 76.2608 70.0043 76.0636 70.2751 76.2207L76.7354 79.9505L77.2601 80.2513C77.3871 80.3249 77.5409 80.3249 77.6679 80.2513L78.1926 79.9505L86.5145 75.1445C86.6415 75.071 86.7184 74.9373 86.7184 74.7903V25.2064C86.7184 25.0593 86.6415 24.9256 86.5145 24.8521L85.9931 24.5513H85.9898ZM42.0207 97.6137L1.6577 74.3124C1.5307 74.2388 1.45383 74.1051 1.45383 73.9581V27.352C1.45383 27.0379 1.79473 26.8407 2.06544 26.9978L42.4284 50.2991C42.5554 50.3726 42.6323 50.5063 42.6323 50.6534V97.2595C42.6323 97.5736 42.2914 97.7708 42.0207 97.6137ZM43.3609 49.1594L2.79068 25.7378C2.51997 25.5807 2.51997 25.1897 2.79068 25.0326L43.1536 1.73122C43.2806 1.65769 43.4344 1.65769 43.5614 1.73122L83.9243 25.0393C84.195 25.1963 84.195 25.5874 83.9243 25.7445L77.6679 29.354C77.5409 29.4275 77.3871 29.4275 77.2601 29.354L44.0861 10.1968L43.5614 9.89605C43.4344 9.82253 43.2806 9.82253 43.1536 9.89605L42.6289 10.1968L34.1031 15.1198L33.9895 15.1867C33.7188 15.3437 33.7188 15.7348 33.9895 15.8918L34.0731 15.9386L34.1065 15.9587L42.0039 20.5207L42.6323 20.8816L44.0861 21.7205L66.8728 34.8785C67.1435 35.0356 67.1435 35.4266 66.8728 35.5837L65.6429 36.2956L60.6196 39.1965C60.4926 39.2701 60.3389 39.2701 60.2119 39.1965L27.0312 20.0428L26.5065 19.742C26.3795 19.6685 26.2257 19.6685 26.0987 19.742L25.574 20.0428L16.9346 25.0326C16.6639 25.1897 16.6639 25.5807 16.9346 25.7378L25.574 30.7276L50.4261 45.0787L43.3575 49.1594H43.3609ZM76.0135 30.3098L68.9415 34.3939L44.2933 20.1597C44.1663 20.0862 44.0894 19.9525 44.0894 19.8055V12.5798C44.0894 12.2656 44.4303 12.0684 44.701 12.2255L76.0168 30.3065L76.0135 30.3098ZM42.6323 12.5798V18.4987C42.6323 18.8129 42.2914 19.0101 42.0207 18.853L36.2822 15.5443H36.2856L42.0207 12.2322C42.2914 12.0751 42.6323 12.2723 42.6323 12.5865V12.5798ZM52.6119 73.9547V44.8915C52.6119 44.7445 52.535 44.6108 52.408 44.5373L27.2351 30.0023C27.1081 29.9288 27.0312 29.7951 27.0312 29.6481V22.4224C27.0312 22.1082 27.3721 21.911 27.6428 22.0681L59.48 40.4465C59.607 40.52 59.6838 40.6537 59.6838 40.8008V77.5642C59.6838 77.8784 59.3429 78.0756 59.0722 77.9185L52.8158 74.3057C52.6887 74.2321 52.6119 74.0985 52.6119 73.9514V73.9547ZM58.347 79.8837L53.2235 82.8415C52.9528 82.9986 52.6119 82.8014 52.6119 82.4872V76.5716C52.6119 76.2575 52.9528 76.0603 53.2235 76.2174L58.347 79.1752C58.6177 79.3322 58.6177 79.7233 58.347 79.8803V79.8837ZM25.5774 22.4291V28.3446C25.5774 28.6588 25.2365 28.856 24.9657 28.6989L19.8423 25.7411C19.5715 25.584 19.5715 25.193 19.8423 25.0359L24.9657 22.0781C25.2365 21.9211 25.5774 22.1182 25.5774 22.4324V22.4291ZM69.6635 73.9581V45.7304C69.6635 45.5834 69.7403 45.4497 69.8673 45.3762L76.1205 41.7666C76.3912 41.6096 76.7321 41.8068 76.7321 42.1209V77.5709C76.7354 77.8851 76.3979 78.0823 76.1238 77.9252L69.8673 74.3124C69.7403 74.2388 69.6635 74.1051 69.6635 73.9581ZM85.0607 74.3124L78.8042 77.9252C78.5335 78.0823 78.1926 77.8851 78.1926 77.5709V39.6043C78.1892 39.2901 77.8483 39.0929 77.5776 39.25L68.4168 44.5373C68.2898 44.6108 68.213 44.7445 68.213 44.8915V83.804C68.213 83.9511 68.1361 84.0848 68.0091 84.1583L44.6977 97.6137C44.427 97.7708 44.0861 97.5736 44.0861 97.2595V50.6567C44.0861 50.5097 44.163 50.376 44.29 50.3025L50.5464 46.6896C50.8172 46.5325 51.1581 46.7297 51.1581 47.0439V85.0105C51.1581 85.3247 51.4989 85.5219 51.7697 85.3648L60.4124 80.375L60.9338 80.0742C61.0608 80.0007 61.1377 79.867 61.1377 79.7199V40.8108C61.1377 40.6637 61.2145 40.5301 61.3415 40.4565L66.211 37.6458L68.9382 36.0717L84.6529 27.0011C84.9236 26.844 85.2645 27.0412 85.2645 27.3554V73.9581C85.2645 74.1051 85.1877 74.2388 85.0607 74.3124Z" fill="white"/>
    <path d="M35.5569 85.0105V54.7408C35.5569 54.5938 35.4801 54.4601 35.3531 54.3866L18.5054 44.6576L9.13737 39.2467C8.86665 39.0896 8.52576 39.2868 8.52576 39.601V69.8707C8.52576 70.0177 8.60263 70.1514 8.72963 70.2249L9.251 70.5257L34.9453 85.3615C35.216 85.5185 35.5569 85.3214 35.5569 85.0072V85.0105ZM19.117 46.6896L33.8992 55.2254C34.0262 55.299 34.1031 55.4326 34.1031 55.5797V72.648C34.1031 72.9621 33.7622 73.1593 33.4915 73.0022L18.7092 64.4698C18.5822 64.3962 18.5054 64.2626 18.5054 64.1155V47.0439C18.5054 46.7297 18.8463 46.5325 19.117 46.6896ZM10.5912 41.7667L16.8477 45.3795C16.9747 45.453 17.0515 45.5867 17.0515 45.7338V64.1155C17.0515 64.2626 16.9747 64.3962 16.8477 64.4698L10.5912 68.0793C10.3205 68.2364 9.97959 68.0392 9.97959 67.725V42.1176C9.97959 41.8034 10.3205 41.6062 10.5912 41.7633V41.7667ZM9.97959 69.2691L10.5043 69.5732C10.6313 69.6467 10.785 69.6467 10.912 69.5732L17.5763 65.7298C17.7033 65.6562 17.857 65.6562 17.984 65.7298L33.9026 74.9173C34.0296 74.9908 34.1065 75.1245 34.1065 75.2716V82.4972C34.1065 82.8114 33.7656 83.0086 33.4948 82.8515L10.7082 69.6935L9.98293 69.2724L9.97959 69.2691Z" fill="white"/>
    <path d="M103.135 25.5339H116.58V28.8292H106.922V33.7455H114.672V37.0409H106.922V42.4484H116.898V45.7739H103.135V25.5339Z" fill="white"/>
    <path d="M118.057 35.6539C118.057 29.6982 122.396 25.3033 128.294 25.3033C134.193 25.3033 138.501 29.6982 138.501 35.6539C138.501 41.6096 134.137 46.0045 128.294 46.0045C122.452 46.0045 118.057 41.6096 118.057 35.6539ZM128.264 42.6791C131.964 42.6791 134.655 39.7012 134.655 35.6539C134.655 31.6066 131.964 28.5987 128.264 28.5987C124.565 28.5987 121.904 31.6066 121.904 35.6539C121.904 39.7012 124.565 42.6791 128.264 42.6791Z" fill="white"/>
    <path d="M140.203 38.9793H143.876C144.079 41.2353 145.58 42.6791 148.01 42.6791C150.179 42.6791 151.683 41.8101 151.683 40.0187C151.683 35.6806 140.811 38.6885 140.811 30.9381C140.811 27.6127 143.672 25.3 147.779 25.3C151.887 25.3 154.951 27.7564 155.125 31.5464H151.482C151.308 29.7818 149.921 28.5986 147.782 28.5986C145.787 28.5986 144.544 29.5244 144.544 30.9415C144.544 35.4233 155.56 32.0678 155.56 39.9619C155.56 43.7218 152.465 46.0045 148.013 46.0045C143.561 46.0045 140.41 43.2272 140.206 38.9793H140.203Z" fill="white"/>
    <path d="M103.135 54.5737H107.242L116.032 68.858V54.5737H119.819V74.8137H115.711L106.922 60.5595V74.8137H103.135V54.5737Z" fill="white"/>
    <path d="M121.984 67.4677C121.984 63.6209 124.354 60.008 129.127 60.008C133.899 60.008 136.212 63.5641 136.212 67.0332C136.212 67.5245 136.182 67.959 136.155 68.2464H125.4C125.661 70.5892 127.165 72.0932 129.421 72.0932C131.242 72.0932 132.429 71.3412 132.803 69.9542H136.272C135.724 73.049 133.004 75.0443 129.421 75.0443C124.648 75.0443 121.991 71.2844 121.991 67.4677H121.984ZM132.653 65.9069C132.509 64.0553 131.236 62.6684 129.123 62.6684C127.128 62.6684 125.855 63.7078 125.48 65.9069H132.653Z" fill="white"/>
    <path d="M143.698 55.8437V60.2386H147.746V63.2165H143.698V69.5766C143.698 71.0504 144.48 71.8024 145.811 71.8024H147.749V74.8103H145.406C142.224 74.8103 140.146 72.9588 140.146 69.7203V63.2131H137.285V60.2353H140.146V55.8404H143.702L143.698 55.8437Z" fill="white"/>
    <path d="M148.528 60.2386H152.084L154.774 69.981L157.635 60.2386H160.904L163.738 69.981L166.428 60.2386H169.984L165.329 74.8104H162.177L159.256 65.0079L156.335 74.8104H153.183L148.528 60.2386Z" fill="white"/>
    <path d="M170.385 67.5245C170.385 63.1864 173.567 60.008 178.019 60.008C182.47 60.008 185.622 63.1897 185.622 67.5245C185.622 71.8592 182.44 75.0409 178.019 75.0409C173.597 75.0409 170.385 71.8592 170.385 67.5245ZM178.019 71.9762C180.418 71.9762 182.039 70.1547 182.039 67.5245C182.039 64.8942 180.418 63.0728 178.019 63.0728C175.619 63.0728 173.971 64.8942 173.971 67.5245C173.971 70.1547 175.589 71.9762 178.019 71.9762Z" fill="white"/>
    <path d="M191.026 67.9289V74.8104H187.47V60.2386H191.026V62.8121C191.748 60.9605 192.878 60.2386 194.756 60.2386H196.461V63.2165H194.178C191.895 63.2165 191.026 65.1549 191.026 67.9289Z" fill="white"/>
    <path d="M198.312 53.9955H201.898V65.5326L207.45 60.242H211.961L206.032 65.937L212.453 74.8137H208.175L203.606 68.3066L201.902 69.9542V74.8103H198.315V53.9922L198.312 53.9955Z" fill="white"/>
</svg>
